<svg width="491" height="162" viewBox="0 0 491 162" fill="none" xmlns="http://www.w3.org/2000/svg">
<path d="M62.3485 123.338L19.5596 98.6549C19.0403 98.3433 18.6942 97.7894 18.6942 97.1663V59.0164C18.6942 58.3586 19.4212 57.9432 19.9751 58.2548L69.6531 86.9191C70.3454 87.3346 71.2109 86.8153 71.2109 86.019V67.4287C71.2109 66.7017 70.8301 66.0094 70.1723 65.6286L10.4203 31.1482C9.90098 30.8367 9.20861 30.8367 8.68932 31.1482L0.86547 35.6833C0.346188 35.9949 0 36.5488 0 37.1719V108.037C0 108.66 0.346188 109.214 0.86547 109.525L62.2446 144.975C62.7639 145.286 63.4563 145.286 63.9756 144.975L115.523 115.203C116.215 114.787 116.215 113.818 115.523 113.403L99.4599 104.125C98.8021 103.744 98.0405 103.744 97.3827 104.125L64.114 123.338C63.5948 123.65 62.9024 123.65 62.3831 123.338H62.3485Z" fill="white"/>
<path d="M125.355 35.6487L63.9761 0.233677C63.4569 -0.0778923 62.7645 -0.0778923 62.2452 0.233677L29.8074 18.9625C29.115 19.3779 29.115 20.3472 29.8074 20.7626L45.732 29.9712C46.3898 30.352 47.1514 30.352 47.8092 29.9712L62.3491 21.5935C62.8683 21.2819 63.5607 21.2819 64.08 21.5935L106.869 46.2767C107.388 46.5883 107.734 47.1422 107.734 47.7653V86.0883C107.734 86.8153 108.115 87.5077 108.773 87.8885L124.698 97.0625C125.39 97.4779 126.255 96.9586 126.255 96.1624V37.172C126.255 36.5488 125.909 35.9949 125.39 35.6833L125.355 35.6487Z" fill="white"/>
<path d="M359.357 37.2266V65.7245H345.686V16.4309H358.715V25.1279H359.293C360.384 22.261 362.213 19.9931 364.78 18.3243C367.348 16.6342 370.461 15.7891 374.119 15.7891C377.542 15.7891 380.527 16.5379 383.073 18.0355C385.619 19.5331 387.598 21.6726 389.01 24.4539C390.422 27.2139 391.128 30.5087 391.128 34.3383V65.7245H377.457V36.7773C377.478 33.7607 376.708 31.4072 375.146 29.7171C373.584 28.0055 371.434 27.1497 368.696 27.1497C366.856 27.1497 365.23 27.5455 363.818 28.3371C362.427 29.1287 361.336 30.284 360.544 31.803C359.774 33.3007 359.378 35.1085 359.357 37.2266Z" fill="white"/>
<path d="M308.708 65.7249V16.4314H321.962V25.0321H322.476C323.374 21.9726 324.882 19.662 327.001 18.1002C329.119 16.517 331.558 15.7253 334.318 15.7253C335.002 15.7253 335.74 15.7681 336.532 15.8537C337.324 15.9393 338.019 16.057 338.618 16.2067V28.3376C337.976 28.145 337.088 27.9738 335.954 27.8241C334.82 27.6743 333.783 27.5994 332.841 27.5994C330.83 27.5994 329.033 28.038 327.45 28.9152C325.888 29.771 324.647 30.9691 323.727 32.5095C322.829 34.05 322.379 35.8257 322.379 37.8368V65.7249H308.708Z" fill="white"/>
<path d="M270.341 66.6551C267.196 66.6551 264.393 66.1096 261.932 65.0184C259.472 63.9059 257.525 62.2692 256.092 60.1083C254.68 57.9261 253.974 55.2089 253.974 51.9569C253.974 49.2184 254.476 46.9185 255.482 45.0571C256.488 43.1958 257.857 41.6981 259.59 40.5642C261.323 39.4303 263.291 38.5745 265.495 37.9968C267.72 37.4192 270.052 37.0127 272.491 36.7773C275.358 36.4778 277.668 36.1997 279.423 35.9429C281.177 35.6648 282.45 35.2583 283.242 34.7234C284.033 34.1886 284.429 33.397 284.429 32.3486V32.1561C284.429 30.1236 283.787 28.551 282.504 27.4385C281.241 26.326 279.444 25.7697 277.112 25.7697C274.652 25.7697 272.694 26.3153 271.239 27.4064C269.784 28.4762 268.822 29.824 268.351 31.45L255.707 30.4231C256.348 27.4278 257.611 24.839 259.493 22.6568C261.376 20.4531 263.805 18.7629 266.778 17.5862C269.774 16.3881 273.24 15.7891 277.176 15.7891C279.915 15.7891 282.536 16.11 285.039 16.7518C287.563 17.3937 289.799 18.3885 291.746 19.7364C293.714 21.0843 295.266 22.8172 296.399 24.9353C297.533 27.032 298.1 29.5459 298.1 32.477V65.7244H285.135V58.8888H284.75C283.958 60.4292 282.899 61.7878 281.573 62.9645C280.246 64.1198 278.652 65.0291 276.791 65.6924C274.93 66.3342 272.78 66.6551 270.341 66.6551ZM274.256 57.22C276.267 57.22 278.043 56.8242 279.583 56.0326C281.124 55.2196 282.332 54.1285 283.21 52.7592C284.087 51.39 284.525 49.8388 284.525 48.1059V42.8748C284.097 43.153 283.509 43.4097 282.76 43.6451C282.033 43.859 281.209 44.0622 280.289 44.2548C279.369 44.426 278.449 44.5864 277.529 44.7362C276.609 44.8646 275.775 44.9822 275.026 45.0892C273.421 45.3245 272.02 45.6989 270.822 46.2124C269.624 46.7259 268.693 47.4212 268.03 48.2984C267.367 49.1542 267.035 50.2239 267.035 51.5076C267.035 53.369 267.709 54.7917 269.057 55.7759C270.426 56.7386 272.159 57.22 274.256 57.22Z" fill="white"/>
<path d="M224.737 66.6872C219.667 66.6872 215.302 65.6603 211.644 63.6064C208.007 61.5311 205.204 58.6 203.236 54.8131C201.267 51.0048 200.283 46.5012 200.283 41.3023C200.283 36.2318 201.267 31.7817 203.236 27.952C205.204 24.1223 207.975 21.1378 211.548 18.9983C215.142 16.8588 219.357 15.7891 224.192 15.7891C227.444 15.7891 230.471 16.3132 233.274 17.3616C236.098 18.3885 238.558 19.9396 240.655 22.0149C242.773 24.0902 244.421 26.7004 245.597 29.8454C246.774 32.9691 247.362 36.6276 247.362 40.8209V44.5757H205.739V36.1034H234.493C234.493 34.1351 234.066 32.3914 233.21 30.8724C232.354 29.3533 231.167 28.1659 229.648 27.3101C228.15 26.433 226.406 25.9944 224.417 25.9944C222.341 25.9944 220.501 26.4757 218.897 27.4385C217.313 28.3799 216.073 29.6529 215.174 31.2575C214.275 32.8407 213.815 34.6058 213.794 36.5527V44.6078C213.794 47.0468 214.243 49.1542 215.142 50.93C216.062 52.7057 217.356 54.075 219.025 55.0378C220.694 56.0005 222.673 56.4819 224.962 56.4819C226.481 56.4819 227.872 56.268 229.134 55.8401C230.396 55.4122 231.477 54.7703 232.375 53.9145C233.274 53.0587 233.959 52.0104 234.429 50.7695L247.074 51.6039C246.432 54.642 245.116 57.2949 243.126 59.5628C241.158 61.8092 238.612 63.5636 235.488 64.8259C232.386 66.0668 228.802 66.6872 224.737 66.6872Z" fill="white"/>
<path d="M151.255 65.7247V0H165.151V54.2678H193.328V65.7247H151.255Z" fill="white"/>
<path d="M462.429 143.72C458.685 143.72 455.294 142.757 452.256 140.831C449.239 138.884 446.843 136.028 445.067 132.263C443.313 128.476 442.436 123.833 442.436 118.335C442.436 112.687 443.345 107.99 445.163 104.246C446.982 100.481 449.4 97.6674 452.416 95.8061C455.454 93.9233 458.781 92.982 462.397 92.982C465.157 92.982 467.457 93.4526 469.297 94.394C471.158 95.314 472.656 96.4693 473.79 97.86C474.945 99.2292 475.822 100.577 476.421 101.904H476.838V77.1926H490.477V142.917H476.999V135.023H476.421C475.779 136.392 474.87 137.751 473.693 139.098C472.538 140.425 471.03 141.527 469.168 142.404C467.328 143.281 465.082 143.72 462.429 143.72ZM466.761 132.84C468.965 132.84 470.826 132.241 472.345 131.043C473.886 129.824 475.063 128.123 475.876 125.941C476.71 123.758 477.127 121.202 477.127 118.271C477.127 115.339 476.721 112.794 475.908 110.633C475.095 108.472 473.918 106.803 472.378 105.626C470.837 104.45 468.965 103.861 466.761 103.861C464.515 103.861 462.622 104.471 461.081 105.69C459.541 106.91 458.375 108.6 457.583 110.761C456.791 112.922 456.396 115.425 456.396 118.271C456.396 121.137 456.791 123.673 457.583 125.876C458.396 128.059 459.562 129.77 461.081 131.011C462.622 132.231 464.515 132.84 466.761 132.84Z" fill="#3D9D9F"/>
<path d="M405.899 143.848C402.754 143.848 399.951 143.302 397.491 142.211C395.031 141.098 393.084 139.462 391.65 137.301C390.238 135.118 389.532 132.401 389.532 129.149C389.532 126.411 390.035 124.111 391.041 122.249C392.046 120.388 393.415 118.891 395.148 117.757C396.881 116.623 398.85 115.767 401.053 115.189C403.278 114.612 405.61 114.205 408.049 113.97C410.916 113.67 413.227 113.392 414.981 113.135C416.736 112.857 418.009 112.451 418.8 111.916C419.592 111.381 419.988 110.589 419.988 109.541V109.348C419.988 107.316 419.346 105.743 418.062 104.631C416.8 103.518 415.003 102.962 412.671 102.962C410.21 102.962 408.253 103.508 406.798 104.599C405.343 105.669 404.38 107.016 403.91 108.642L391.265 107.615C391.907 104.62 393.169 102.031 395.052 99.8492C396.935 97.6455 399.363 95.9553 402.337 94.7786C405.332 93.5805 408.798 92.9814 412.735 92.9814C415.473 92.9814 418.094 93.3024 420.597 93.9442C423.122 94.5861 425.358 95.5809 427.305 96.9288C429.273 98.2766 430.824 100.01 431.958 102.128C433.092 104.224 433.659 106.738 433.659 109.669V142.917H420.694V136.081H420.309C419.517 137.622 418.458 138.98 417.131 140.157C415.805 141.312 414.211 142.222 412.35 142.885C410.488 143.527 408.338 143.848 405.899 143.848ZM409.814 134.412C411.826 134.412 413.601 134.017 415.142 133.225C416.682 132.412 417.891 131.321 418.768 129.952C419.645 128.582 420.084 127.031 420.084 125.298V120.067C419.656 120.345 419.068 120.602 418.319 120.837C417.591 121.051 416.768 121.255 415.848 121.447C414.928 121.618 414.008 121.779 413.088 121.929C412.168 122.057 411.334 122.175 410.585 122.282C408.98 122.517 407.579 122.891 406.381 123.405C405.183 123.918 404.252 124.614 403.589 125.491C402.925 126.347 402.594 127.416 402.594 128.7C402.594 130.561 403.268 131.984 404.616 132.968C405.985 133.931 407.718 134.412 409.814 134.412Z" fill="#3D9D9F"/>
<path d="M358.69 143.88C353.705 143.88 349.394 142.821 345.757 140.702C342.142 138.563 339.349 135.589 337.381 131.781C335.413 127.951 334.429 123.512 334.429 118.463C334.429 113.371 335.413 108.921 337.381 105.112C339.349 101.283 342.142 98.3087 345.757 96.1907C349.394 94.0512 353.705 92.9814 358.69 92.9814C363.675 92.9814 367.976 94.0512 371.591 96.1907C375.229 98.3087 378.031 101.283 380 105.112C381.968 108.921 382.952 113.371 382.952 118.463C382.952 123.512 381.968 127.951 380 131.781C378.031 135.589 375.229 138.563 371.591 140.702C367.976 142.821 363.675 143.88 358.69 143.88ZM358.755 133.289C361.022 133.289 362.916 132.647 364.435 131.364C365.954 130.059 367.099 128.283 367.869 126.036C368.66 123.79 369.056 121.233 369.056 118.366C369.056 115.499 368.66 112.943 367.869 110.696C367.099 108.45 365.954 106.674 364.435 105.369C362.916 104.064 361.022 103.411 358.755 103.411C356.465 103.411 354.54 104.064 352.978 105.369C351.438 106.674 350.272 108.45 349.48 110.696C348.71 112.943 348.325 115.499 348.325 118.366C348.325 121.233 348.71 123.79 349.48 126.036C350.272 128.283 351.438 130.059 352.978 131.364C354.54 132.647 356.465 133.289 358.755 133.289Z" fill="#3D9D9F"/>
<path d="M325.467 77.1926V142.917H311.796V77.1926H325.467Z" fill="#3D9D9F"/>
<path d="M267.285 161.402C265.552 161.402 263.926 161.263 262.407 160.985C260.91 160.728 259.669 160.397 258.684 159.99L261.765 149.785C263.37 150.277 264.814 150.545 266.098 150.587C267.403 150.63 268.526 150.331 269.467 149.689C270.43 149.047 271.211 147.956 271.81 146.415L272.612 144.329L254.93 93.6238H269.307L279.512 129.824H280.026L290.327 93.6238H304.801L285.642 148.245C284.722 150.898 283.47 153.208 281.887 155.177C280.325 157.166 278.346 158.696 275.95 159.766C273.554 160.857 270.666 161.402 267.285 161.402Z" fill="#3D9D9F"/>
<path d="M222.243 143.848C219.098 143.848 216.295 143.302 213.835 142.211C211.374 141.098 209.428 139.462 207.994 137.301C206.582 135.118 205.876 132.401 205.876 129.149C205.876 126.411 206.379 124.111 207.384 122.249C208.39 120.388 209.759 118.891 211.492 117.757C213.225 116.623 215.193 115.767 217.397 115.189C219.622 114.612 221.954 114.205 224.393 113.97C227.26 113.67 229.571 113.392 231.325 113.135C233.079 112.857 234.352 112.451 235.144 111.916C235.936 111.381 236.331 110.589 236.331 109.541V109.348C236.331 107.316 235.69 105.743 234.406 104.631C233.144 103.518 231.346 102.962 229.014 102.962C226.554 102.962 224.596 103.508 223.142 104.599C221.687 105.669 220.724 107.016 220.253 108.642L207.609 107.615C208.251 104.62 209.513 102.031 211.396 99.8492C213.279 97.6455 215.707 95.9553 218.681 94.7786C221.676 93.5805 225.142 92.9814 229.079 92.9814C231.817 92.9814 234.438 93.3024 236.941 93.9442C239.466 94.5861 241.702 95.5809 243.648 96.9288C245.617 98.2766 247.168 100.01 248.302 102.128C249.436 104.224 250.003 106.738 250.003 109.669V142.917H237.037V136.081H236.652C235.861 137.622 234.802 138.98 233.475 140.157C232.149 141.312 230.555 142.222 228.693 142.885C226.832 143.527 224.682 143.848 222.243 143.848ZM226.158 134.412C228.169 134.412 229.945 134.017 231.486 133.225C233.026 132.412 234.235 131.321 235.112 129.952C235.989 128.582 236.428 127.031 236.428 125.298V120.067C236 120.345 235.411 120.602 234.663 120.837C233.935 121.051 233.112 121.255 232.192 121.447C231.272 121.618 230.352 121.779 229.432 121.929C228.512 122.057 227.677 122.175 226.928 122.282C225.324 122.517 223.922 122.891 222.724 123.405C221.526 123.918 220.596 124.614 219.932 125.491C219.269 126.347 218.937 127.416 218.937 128.7C218.937 130.561 219.611 131.984 220.959 132.968C222.329 133.931 224.062 134.412 226.158 134.412Z" fill="#3D9D9F"/>
<path d="M151.255 142.917V77.1926H177.185C182.17 77.1926 186.417 78.1447 189.926 80.0488C193.435 81.9316 196.109 84.5524 197.949 87.9114C199.81 91.249 200.741 95.1 200.741 99.4646C200.741 103.829 199.8 107.68 197.917 111.018C196.034 114.355 193.306 116.955 189.733 118.816C186.182 120.677 181.881 121.608 176.832 121.608H160.305V110.472H174.586C177.26 110.472 179.464 110.012 181.197 109.092C182.951 108.151 184.256 106.856 185.112 105.209C185.989 103.54 186.428 101.625 186.428 99.4646C186.428 97.2823 185.989 95.3782 185.112 93.7522C184.256 92.1048 182.951 90.8318 181.197 89.9332C179.442 89.0132 177.217 88.5532 174.522 88.5532H165.151V142.917H151.255Z" fill="#3D9D9F"/>
</svg>
